<svg xmlns="http://www.w3.org/2000/svg" xmlns:xlink="http://www.w3.org/1999/xlink" version="1.0" id="Layer_1" x="0px" y="0px" viewBox="0 0 100 102.5" style="enable-background:new 0 0 100 102.5;" xml:space="preserve">
<style type="text/css">
	.st0{fill:#494949;}
	.st1{fill:#006D8B;}
	.st2{fill:#8E8E8E;}
	.st3{fill:#AAAAAA;}
	.st4{fill:#E8A22F;}
	.st5{fill:#D2D2D2;}
	.st6{fill:#626262;}
	.st7{fill:#BB2945;}
	.st8{fill:#7F7F7F;}
	.st9{fill:#949494;}
	.st10{fill:#1FAD52;}
	.st11{fill:#B3B3B3;}
	.st12{fill:#B2B2B2;}
	.st13{fill:#343434;}
	.st14{fill:#484848;}
	.st15{fill:#838383;}
	.st16{fill:#575757;}
</style>
<g>
	<path class="st0" d="M39.7,80c4.3,0,7.8,3.5,7.8,7.8s-3.5,7.8-7.8,7.8S32,92,32,87.7C32,83.5,35.4,80,39.7,80"/>
	<path class="st1" d="M39.7,53.8c4.3,0,7.8,3.5,7.8,7.8c0,4.3-3.5,7.8-7.8,7.8S32,65.9,32,61.6C32,57.3,35.4,53.8,39.7,53.8"/>
	<rect x="32" y="61.6" class="st0" width="15.5" height="26.2"/>
	<path class="st2" d="M5.8,61.6c0,4.3,3.5,7.8,7.8,7.8h26.2c4.3,0,7.8-3.5,7.8-7.8c0-4.3-3.5-7.8-7.8-7.8H13.6   C9.3,53.8,5.8,57.3,5.8,61.6"/>
	<path class="st3" d="M60.3,22.5c-4.3,0-7.8-3.5-7.8-7.8S56,7,60.3,7c4.3,0,7.8,3.5,7.8,7.8S64.6,22.5,60.3,22.5"/>
	<path class="st4" d="M60.3,48.7c-4.3,0-7.8-3.5-7.8-7.8s3.5-7.8,7.8-7.8c4.3,0,7.8,3.5,7.8,7.8S64.6,48.7,60.3,48.7"/>
	<rect x="52.5" y="14.8" class="st3" width="15.5" height="26.2"/>
	<path class="st5" d="M52.5,41c0,4.3,3.5,7.8,7.8,7.8h26.2c4.3,0,7.8-3.5,7.8-7.8s-3.5-7.8-7.8-7.8H60.3C56,33.3,52.5,36.7,52.5,41"/>
	<path class="st6" d="M21.2,41c0,4.3-3.5,7.8-7.8,7.8S5.7,45.3,5.7,41s3.5-7.8,7.8-7.8C17.8,33.3,21.2,36.7,21.2,41"/>
	<path class="st7" d="M47.5,41c0,4.3-3.5,7.8-7.8,7.8S32,45.3,32,41s3.5-7.8,7.8-7.8S47.5,36.7,47.5,41"/>
	<rect x="13.6" y="33.3" class="st6" width="26.2" height="15.5"/>
	<path class="st8" d="M32,14.8v26.2c0,4.3,3.5,7.8,7.8,7.8s7.8-3.5,7.8-7.8V14.8c0-4.3-3.5-7.8-7.8-7.8C35.4,7.1,32,10.6,32,14.8"/>
	<path class="st9" d="M78.8,61.6c0-4.3,3.5-7.8,7.8-7.8c4.3,0,7.8,3.5,7.8,7.8c0,4.3-3.5,7.8-7.8,7.8C82.2,69.3,78.8,65.9,78.8,61.6   "/>
	<path class="st10" d="M52.5,61.6c0-4.3,3.5-7.8,7.8-7.8c4.3,0,7.8,3.5,7.8,7.8c0,4.3-3.5,7.8-7.8,7.8S52.5,65.9,52.5,61.6"/>
	<rect x="60.3" y="53.8" class="st9" width="26.2" height="15.5"/>
	<path class="st11" d="M52.5,61.6v26.2c0,4.3,3.5,7.8,7.8,7.8c4.3,0,7.8-3.5,7.8-7.8V61.6c0-4.3-3.5-7.8-7.8-7.8   S52.5,57.3,52.5,61.6"/>
	<path class="st8" d="M14.8,7.1c5,0,9,4,9,9s-4,9-9,9s-9-4-9-9S9.8,7.1,14.8,7.1"/>
	<path class="st2" d="M14.8,77.4c5,0,9,4,9,9s-4,9-9,9s-9-4-9-9C5.8,81.5,9.8,77.4,14.8,77.4"/>
	<path class="st12" d="M85.2,77.4c5,0,9,4,9,9s-4,9-9,9c-5,0-9-4-9-9C76.2,81.5,80.2,77.4,85.2,77.4"/>
	<path class="st5" d="M85.2,7.1c5,0,9,4,9,9s-4,9-9,9c-5,0-9-4-9-9S80.2,7.1,85.2,7.1"/>
	<path class="st13" d="M39.7,69.2H32v2.7V72v2.7h7.8c3,0,5.8-1.3,7.8-3.4v-2.7v-4.5v-2.7C47.5,65.9,44,69.2,39.7,69.2"/>
	<path class="st14" d="M26.4,41.1L26.4,41.1L26.4,41.1c0,2.9,1.3,5.7,3.4,7.7h2.8H37h2.8c0.4,0,0.8,0,1.3-0.1   c-0.4,0.1-0.8,0.1-1.3,0.1c-4.3,0-7.8-3.5-7.8-7.8v-7.8h-2.8h-0.1h-2.8L26.4,41.1L26.4,41.1z"/>
	<path class="st15" d="M52.5,31.1v2.8v4.4V41c0-4.3,3.5-7.8,7.8-7.8H68v-2.8v-0.1v-2.8h-7.8C57.2,27.7,54.5,29.1,52.5,31.1"/>
	<path class="st16" d="M68,61.6v7.8h2.8h0.1h2.8v-7.8c0-3-1.3-5.8-3.4-7.8h-2.8h-4.4h-2.8C64.6,53.8,68,57.3,68,61.6"/>
</g>
</svg>
