<svg xmlns="http://www.w3.org/2000/svg" xmlns:xlink="http://www.w3.org/1999/xlink" version="1.1" id="Layer_1" x="0px" y="0px" viewBox="0 0 460 460" style="enable-background:new 0 0 460 460;" xml:space="preserve">
<style type="text/css">
	.st0{fill-rule:evenodd;clip-rule:evenodd;fill:#727272;}
	.st1{fill:#727272;}
	.st2{fill:none;}
</style>
<g>
	<path class="st0" d="M132.8,3h194.6v326.9l0,0h-6.1h-4.1h-7.8h-7.5h-2.4h-2h-0.2h-6.4h-11.6h-54.8h-30.6h-46.2h-15V3H132.8z    M323.5,319.7v-14.4c-3.9,6.7-7.7,13.3-11.6,20h8.1L323.5,319.7z M323.5,288.4v-10.7c-7.7,13.2-15.3,26.4-23,39.6   c0.2,2.1,0.5,4.3,0.7,6.5C308.8,312.1,316.1,300.2,323.5,288.4L323.5,288.4z M323.5,261.1v-14.3c-8.1,15.3-18.1,34.1-25.8,48.8   c0.2,1.7,0.5,3.6,0.7,5.3C306.9,287.6,315.2,274.3,323.5,261.1L323.5,261.1z M323.5,229.2V211c-9.2,19.4-20.7,43.3-29.5,62   c0.3,2,0.7,4,1.1,6C304.6,262.4,314.1,245.8,323.5,229.2L323.5,229.2z M327.4,185.6l-3.8,7.3C324.9,190.5,326.1,188,327.4,185.6   L327.4,185.6z M323.5,193v-27.8c-10.4,26.9-23.8,60.7-33.8,86.6c0.3,1.5,0.7,3.1,1,4.7C301.8,235.3,312.6,214.1,323.5,193   L323.5,193z M323.5,145.8v-27.1c-1.6,4.2-3.2,8.5-4.9,12.7c-11.3,29.8-24.1,63.1-35.6,93.1c0.9,3.4,1.8,6.9,2.7,10.4   c11.1-26.1,22.2-52.3,33.3-78.4L323.5,145.8z M323.5,101.6V50c-5.4,17.2-10.7,34.4-16,51.6c-9.3,29.6-21.9,67.8-31.4,98.1   c0.8,2.7,1.6,5.4,2.4,8.1c10.4-24.4,20.8-48.9,31.2-73.4C314.4,123.5,318.9,112.5,323.5,101.6L323.5,101.6z M323.5,34.3v-27h-13.7   C304.5,31,299,54.8,293.6,78.6c-6.8,29.7-17.7,68.1-24.9,98.8c0.8,2.3,1.6,4.5,2.3,6.7c9.3-26.2,18.6-52.5,27.8-78.8   C306.9,81.7,315.4,58,323.5,34.3L323.5,34.3z M305.5,6.3l-0.2,0.9H293c-3.4,16.3-6.7,32.6-10.1,48.9c-6.4,30.6-15.3,69.8-21.8,101   c0.8,2.1,1.7,4.2,2.5,6.3c7.3-26.9,14.5-53.7,21.7-80.5C291.9,57.4,298.8,31.8,305.5,6.3L305.5,6.3z M287.4,7.2h-12.2   c-1.5,9-3.1,17.9-4.7,26.8c-5.4,30.6-13,70.8-18.6,102.1c0.9,1.9,1.7,3.7,2.5,5.6c6.7-27,13.4-54.1,20-81.2   C278.6,42.8,283,25,287.4,7.2L287.4,7.2z M268.9,7.2H256l-0.3,2.7c-4.1,30.5-10.4,72.6-14.7,104.2c1.2,2.3,2.4,4.6,3.6,6.8   c5.9-27.4,11.8-54.8,17.6-82.2C264.4,28.3,266.5,17.8,268.9,7.2L268.9,7.2z M248.9,7.2h-8l0.1-0.9c-3.6,26.5-8.1,60.3-11.7,87.3   c1.2,2.1,2.5,4.2,3.8,6.3c4.9-28.3,9.8-56.7,14.6-85L248.9,7.2z M234.8,6.3l-0.1,0.9h-10.4c-1.6,22.2-3.4,49-5,71.1   c0.8,1.2,1.7,2.5,2.5,3.7c4.2-23.9,8.3-47.7,12.3-71.7L234.8,6.3z M218.9,6.6l-0.1,0.6h-7.5l0.1-0.9l-0.3,4.7   c-1.2,17.1-2.5,34.3-3.7,51.4c1.6,2.1,3.3,4.1,4.9,6.2C214.4,47.9,216.6,27.3,218.9,6.6L218.9,6.6z M207.6,7.2h-7.5   c-0.2,15.2-0.4,30.5-0.6,45.7h-0.1c1,1.1,1.9,2.2,2.9,3.3c1.5-14.1,3.1-28.2,4.6-42.3L207.6,7.2z M196.1,7.2h-5.3   c-0.2,12-0.3,24-0.5,35.9c1.3,1.3,2.5,2.7,3.8,4C194.6,33.8,195.4,20.6,196.1,7.2L196.1,7.2z M187.8,7.2h-8.6   c1.3,8.8,1,18.7,2.1,27.5c1.6,1.5,3.2,3,4.9,4.5c0.5-10.4,1.1-20.9,1.5-31.4L187.8,7.2z M176.9,7.2h-8.7c1.5,6,3.6,14.4,5.1,20.6   c1.5,1.2,3,2.5,4.6,3.8C177.1,23.5,177.2,15.4,176.9,7.2L176.9,7.2z M165.6,7.2h-7.4l4,12.4c2.4,1.6,4.7,3.3,7,5.1   C168.1,18.9,166.8,13,165.6,7.2L165.6,7.2z M155.3,7.2h-4.6l-0.3-0.9l2.8,7.4c1.7,1,3.4,2.1,5,3.2L155.3,7.2z M147.6,7.2h-6   c2.4,1.2,4.8,2.5,7.2,3.8L147.6,7.2z M151.9,17.3l-14.8-2.4v3.4c6.8,0.9,13.6,1.9,20.4,2.8C155.8,19.8,153.8,18.5,151.9,17.3   L151.9,17.3z M137.1,11.8c2.3,0.3,4.6,0.6,6.9,0.9c-2.3-1.3-4.6-2.5-6.9-3.6V11.8z M163.6,25.3c-8.8-1.4-17.6-2.9-26.4-4.3v2.8   c9.8,1.3,19.6,2.5,29.3,3.8C165.6,26.9,164.6,26.1,163.6,25.3L163.6,25.3z M171.8,31.9c-11.5-1.7-23.1-3.5-34.6-5.2v4.1   c12.9,1.6,25.8,3.2,38.7,4.8C174.4,34.3,173.1,33.1,171.8,31.9L171.8,31.9z M180.3,39.7c-14.4-2.3-28.8-4.6-43.2-6.9V37   c15.4,1.9,30.8,3.7,46.2,5.6C182.3,41.7,181.3,40.6,180.3,39.7L180.3,39.7z M187.4,46.8c-16.8-2.7-33.5-5.2-50.3-7.9v4.2l11.8,1.5   c13.7,1.7,27.4,3.4,41.1,5.1C189.1,48.7,188.2,47.8,187.4,46.8L187.4,46.8z M162.9,325.3h39.2c-3.3-0.7-6.8-1.4-10.3-2   c-18.2-3.7-36.5-7.3-54.7-11v9.6l-4.3-0.6C142.9,322.6,152.8,323.9,162.9,325.3L162.9,325.3z M252.1,325.3h22.5   c-29.3-5.9-58-11.9-87.8-17.8c-16.5-3.3-33.1-6.5-49.6-9.9v8.4c21.3,3.6,42.5,7.2,63.7,10.8C219.9,319.9,235.8,322.6,252.1,325.3   L252.1,325.3z M289.4,315.9c-0.2-1.4-0.3-2.8-0.5-4.3c-35-6.8-70-13.7-105-20.7l-46.8-9.3v9.2c19.5,3.2,39,6.3,58.5,9.5   C228.4,305.7,257.4,310.7,289.4,315.9L289.4,315.9z M287.4,298.8c-0.3-2.1-0.6-4.3-0.9-6.4c-34.8-6.7-69.5-13.3-104.3-20.1   c-15-2.9-30-5.8-45-8.7v11.2c18.3,2.9,36.6,5.9,54.9,8.8C224.9,288.8,254.9,293.6,287.4,298.8L287.4,298.8z M284.5,280.2   c-0.3-2-0.7-4-1-6c-35.8-6.7-71.6-13.4-107.2-20.1c-13-2.4-26.1-4.9-39.2-7.4v10.2c18.1,2.9,36.2,5.8,54.3,8.7   C223.6,270.8,252.9,275.2,284.5,280.2L284.5,280.2z M281.4,262.5c-0.3-1.7-0.7-3.6-1.1-5.4c-35.4-6.5-70.9-13-106.2-19.6   c-12.4-2.3-24.7-4.6-37-6.9v9.3c15.7,2.5,31.5,5,47.3,7.4C217.9,252.5,248.2,257.4,281.4,262.5L281.4,262.5z M277.9,245.4   c-0.3-1.6-0.7-3.3-1.1-5c-34.9-6.5-69.8-13-104.6-19.6l-35.2-6.7v9.6c15.1,2.4,30.2,4.7,45.4,7.1   C215.1,235.9,245.8,240.5,277.9,245.4L277.9,245.4z M273.9,227.5c-0.4-1.7-0.8-3.3-1.2-5c-37.2-6.9-74.4-13.8-111.6-20.8l-28.3-5.3   l4.3,0.8v9.6c13.9,2.2,27.9,4.3,41.9,6.5C210.6,218.1,242.2,222.8,273.9,227.5L273.9,227.5z M268.9,207.9c-0.6-2.3-1.3-4.7-2-7.1   c-36.1-6.2-72.1-12.3-108.1-18.5c-7.2-1.2-14.4-2.5-21.6-3.7v10.3c10.4,1.5,20.8,3,31.2,4.6C201.9,198.4,235.4,203.2,268.9,207.9   L268.9,207.9z M263.5,189.6c-0.6-1.8-1.1-3.6-1.7-5.4c-35.1-6.2-70.1-12.4-105.2-18.6c-6.5-1.2-13-2.3-19.5-3.5v9.5l25.3,3.7   C196.1,180.1,229.8,184.9,263.5,189.6L263.5,189.6z M258.1,172.9c-0.7-2.1-1.5-4.2-2.2-6.3c-35.4-6-70.9-12-106.4-18.1l-16.7-2.9   l4.3,0.7v8.5c7.7,1.2,15.4,2.3,23.1,3.5C192.8,163.3,225.6,168.1,258.1,172.9L258.1,172.9z M251.4,154.4c-0.9-2.3-1.7-4.5-2.7-6.7   c-35.1-6.1-70.2-12.2-105.2-18.3l-10.6-1.9l4.3,0.7v10.6l-4.3-0.6l21.6,3C186.8,145.6,219.1,150,251.4,154.4L251.4,154.4z    M243.1,134.5c-0.7-1.7-1.5-3.3-2.3-5c-34.6-5.8-69.2-11.7-103.8-17.6v8.1l-4.3-0.6l15.8,2.2C180.1,126,211.6,130.3,243.1,134.5   L243.1,134.5z M234.9,116.9c-0.8-1.7-1.7-3.4-2.5-5c-31.7-5.2-63.5-10.4-95.2-15.7v7.4l-4.3-0.6l5.8,0.8   C170.8,108.2,202.8,112.5,234.9,116.9L234.9,116.9z M226.4,100.9c-0.9-1.6-1.9-3.3-2.8-5c-28.8-4.6-57.7-9.1-86.5-13.7v6.5   C166.8,92.8,196.6,96.8,226.4,100.9L226.4,100.9z M217.6,86.1c-1.2-1.8-2.3-3.6-3.5-5.4c-24.4-3.9-49-7.7-73.4-11.7l-3.7-0.6v7.2   l-0.8-0.1C163.3,79.2,190.6,82.6,217.6,86.1L217.6,86.1z M208.6,72.7c-1-1.3-1.9-2.7-2.9-3.9c-20.1-3.4-40.3-6.8-60.5-10.2   l-8.1-1.4v6.2l-4.3-0.6l10.4,1.4C165.1,67.1,186.8,69.9,208.6,72.7L208.6,72.7z M199.6,60.7c-1.4-1.7-2.8-3.5-4.2-5.1   c-16.1-2.5-32.2-5-48.1-7.6l-14.4-2.2l4.3,0.6v6.3c3.5,0.5,7,0.9,10.5,1.4C164.8,56.3,182.2,58.5,199.6,60.7L199.6,60.7z    M141.1,7.1c-0.5-0.3-1-0.5-1.4-0.7C140.1,6.6,140.6,6.8,141.1,7.1L141.1,7.1z"/>
	<path class="st1" d="M132.9,457V343.8h51.6v15.5h-28.4v28.4h27.7v14.9h-27.7v38.8h28.3V457H132.9z M192.2,457V343.8h27.6   c11.5,0,19.8,1.6,25.1,4.9c5.2,3.2,7.8,8.5,7.8,15.6v27.8c0,7.3-2.6,12.5-7.8,15.9c-5.2,3.3-13.6,5-25.1,5h-4.3v44H192.2z    M229.2,392.1v-27.8c0-2.5-0.7-4.3-2.2-5.6c-1.4-1.2-3.6-1.8-6.5-1.8h-5.1v42.6h5.1c2.9,0,5.1-0.6,6.5-1.8   C228.6,396.4,229.2,394.6,229.2,392.1L229.2,392.1z M254.4,457L273,343.8h35.4l17,113.2h-23.8l-4.8-30.5h-14.5l-5,30.5H254.4z    M284.4,411.9h10.8l-2.4-28.2c-0.2-2.4-0.3-5.3-0.7-8.6c-0.3-3.3-0.9-8-1.7-14.3h-1c-0.2,1.6-0.6,5.7-1.2,12.2   c-0.5,4.5-0.7,8.1-1.1,10.9L284.4,411.9z"/>
</g>
<rect x="-0.1" y="0" class="st2" width="460" height="460"/>
</svg>
