<svg xmlns="http://www.w3.org/2000/svg" xmlns:xlink="http://www.w3.org/1999/xlink" version="1.1" id="Layer_1" x="0px" y="0px" viewBox="0 0 305.644 390.645" style="enable-background:new 0 0 305.644 390.645;" xml:space="preserve">
<g>
	<path style="fill-rule:evenodd;clip-rule:evenodd;fill:#A0A0A0;" d="M43.663,313.583c23.606-12.488,53.89-23.66,75.993-0.572   c6.469,6.758,15.304,22.148,15.304,28.359c0,9.936-45.461,33.736-72.899,1.448C54.096,333.448,49.448,324.515,43.663,313.583   L43.663,313.583z M73.434,277.859c-23.032,0-38.3,4.627-58.132,13.318c-6.343,2.777-8.537,4.953-15.301,6.53   c1.015,12.203,21.853,39.613,29.278,48.124c22.495,25.777,53.198,31.17,84.464,17.987c10.775-4.542,15.637-9.397,24.74-14.957   c8.68-5.302,32.379-10.332,54.67-22.732c62.483-34.761,71.638-91.041,50.247-156.712l-21.114-52.322   c-6.383,1.489-14.577,5.982-20.481,9.289c-55.01,30.799-111.624,74.062-96.163,147.05c1.247,5.883,2.004,11.298,5.501,16.333   l-4.849-1.106C98.584,282.059,83.78,277.859,73.434,277.859L73.434,277.859z M142.899,335.417   c14.055-0.314,34.871-11.265,43.968-17.559c38.53-26.653,35.738-68.237,20.139-108.077c-2.787-7.116-7.037-14.802-8.537-21.234   c-12.819,1.066-40.899,20.587-49.148,28.256C90.58,271.422,138.921,320.518,142.899,335.417z"/>
	<path style="fill-rule:evenodd;clip-rule:evenodd;fill:#808081;" d="M91.297,194.501c7.346-8.452,18.191-58.723,97.904-98.582   c15.259-7.63,31.139-14.364,48.963-18.515c25.137,47.502,47.76,102.855,34.913,159.949c-1.816,8.075-4.531,13.297-5.143,20.66   c19.188-12.85,37.71-59.55,37.71-93.282c0-50.168-7.287-85.814-24.103-130.705C277.756,23.918,272.89,9.366,267.934,0   c-19.255,4.486-81.009,42.092-101.68,59.079C123.822,93.953,91.297,133.614,91.297,194.501L91.297,194.501z M265.949,258.012   c0.199-0.197,0.553,0.553,0.593,0.591L265.949,258.012z"/>
	<path style="fill-rule:evenodd;clip-rule:evenodd;fill:#808081;" d="M150.838,351.294c4.557,8.614,9.688,18.346,16.298,25.378   c26.754,28.463,49.162,5.065,59.121,2.407c-0.37-16.588-16.15-37.709-31.756-37.709   C162.724,341.37,169.064,347.047,150.838,351.294z"/>
</g>
</svg>
