<svg xmlns="http://www.w3.org/2000/svg" xmlns:xlink="http://www.w3.org/1999/xlink" version="1.1" id="Layer_1" x="0px" y="0px" viewBox="0 0 482.2 505.705" style="enable-background:new 0 0 482.2 505.705;" xml:space="preserve">
<path style="fill:#CFCECD;" d="M241.1,39.476c-117.85,0-213.38,95.54-213.38,213.38c0,117.85,95.53,213.38,213.38,213.38  s213.38-95.53,213.38-213.38C454.48,135.016,358.95,39.476,241.1,39.476z M241.1,411.266c-87.49,0-158.41-70.92-158.41-158.41  c0-87.48,70.92-158.41,158.41-158.41s158.41,70.93,158.41,158.41C399.51,340.346,328.59,411.266,241.1,411.266z"/>
<path style="fill:#6A6A6A;" d="M263.18,364.48c15.98-32.34,49.3-54.59,87.82-54.59c44.6,0,82.25,29.83,94.05,70.64  c-50.63,34.33-109.59,12.01-122.96,8.49C311.45,386.22,289.46,376.74,263.18,364.48L263.18,364.48z"/>
<path style="fill:#717171;" d="M219.03,141.23c-15.98,32.34-49.3,54.59-87.82,54.59c-44.6,0-82.25-29.83-94.05-70.64  c50.63-34.33,109.59-12.01,122.96-8.49C170.76,119.49,192.75,128.97,219.03,141.23z"/>
<g>
	<defs>
		<path id="SVGID_1_" d="M482.19,175.39c0,33.41-27.09,60.5-60.5,60.5c-12.82,0-24.71-3.99-34.5-10.79c0,0-98.97-51.6-168.17-83.88    c-26.28-12.26-48.27-21.74-58.91-24.54c-13.37-3.52-72.33-25.84-122.96,8.49c-2.51-8.65-3.85-17.8-3.85-27.26    c0-48.23,34.88-88.32,80.79-96.41c5.55-0.98,11.28-1.5,17.12-1.5c1.02,0,2.03,0.02,3.04,0.05c0.48-0.02,0.96-0.02,1.45-0.03    c5.79-0.1,11.56,0.31,17.29,1.17C262.82,17.75,406.25,96.96,446.56,120.2c0,0,0.02,0.02,0.03,0.02c6.6,3.8,10.42,6.11,10.88,6.38    c0.02,0.02,0.04,0.02,0.04,0.02c14.97,11,24.69,28.74,24.69,48.76L482.19,175.39z"/>
	</defs>
	<use xlink:href="#SVGID_1_" style="overflow:visible;fill:#9B9B9B;"/>
	<clipPath id="SVGID_00000142875110935656175940000011916765403113708682_">
		<use xlink:href="#SVGID_1_" style="overflow:visible;"/>
	</clipPath>
</g>
<g>
	<defs>
		<path id="SVGID_00000124878427666746536820000015978200817348540080_" d="M448.9,407.8c0,48.23-34.88,88.32-80.79,96.41    c-6.31,0.79-13.02,1.27-20.16,1.45c-0.48,0.02-0.96,0.02-1.45,0.03c-5.79,0.1-11.56-0.31-17.29-1.17    c-109.87-16.57-253.34-95.81-293.6-119.03c-0.02,0-0.03,0-0.05-0.02c-7-4.04-10.87-6.37-10.87-6.37C9.72,368.09,0,350.35,0,330.33    c0-33.41,27.09-60.5,60.5-60.5c12.82,0,24.71,3.98,34.5,10.79c0,0,0.02,0.02,0.07,0.04c3.01,1.57,99.98,52.06,168.09,83.83    c26.28,12.26,48.27,21.74,58.91,24.54c13.37,3.52,72.33,25.84,122.96-8.49c2.51,8.65,3.85,17.8,3.85,27.26L448.9,407.8z"/>
	</defs>
	<use xlink:href="#SVGID_00000124878427666746536820000015978200817348540080_" style="overflow:visible;fill:#9B9B9B;"/>
	<clipPath id="SVGID_00000031191419794946101590000002342190309971233458_">
		<use xlink:href="#SVGID_00000124878427666746536820000015978200817348540080_" style="overflow:visible;"/>
	</clipPath>
</g>
</svg>
