<svg xmlns="http://www.w3.org/2000/svg" xmlns:xlink="http://www.w3.org/1999/xlink" version="1.1" id="Layer_1" x="0px" y="0px" viewBox="0 0 460 460" style="enable-background:new 0 0 460 460;" xml:space="preserve">
<style type="text/css">
	.st0{fill:none;}
	.st1{fill:#474747;}
</style>
<rect x="-0.1" class="st0" width="460" height="460"/>
<path class="st1" d="M454.1,198.3c3.2-15.3,4.3-29.4,4.2-41.7c0-51.5-41.7-93.2-93.2-93.2H153.7v0.2v228.3v39.3h-43  c-9.4,0-18.5-3.2-25.7-9.3c-9.8-8.3-14.5-18.7-16.5-24.9c-1-3-1.5-6.1-1.5-9.3V63.6l-29.6-0.1c-19.7,0-35.7,15.9-35.7,35.6v188.7  c0,60.1,48.7,108.8,108.8,108.8h43.7h65.3l86.7-150.2l77.1,132.9c6.1,10.6,17.5,17.1,29.7,17.1h45.3l-57.2-99  C418,279.5,444,246.2,454.1,198.3z M384.8,212.4c-5.7,11.4-12.8,19.6-18.4,25.1l-33.3-57.6c-12-20.8-42-20.8-54,0l-59.7,103.4  l0-64.3v-90.3c57.8,0,57.4,0,115.3,0l30.3,0.2c11.3,1.8,17.5,6.4,20.7,9.5C404.3,156.5,394.5,193.2,384.8,212.4z"/>
</svg>
